<?xml version="1.0" encoding="utf-8"?>
<!-- Generator: Adobe Illustrator 22.1.0, SVG Export Plug-In . SVG Version: 6.00 Build 0)  -->
<svg version="1.1" id="Ebene_1" xmlns="http://www.w3.org/2000/svg" xmlns:xlink="http://www.w3.org/1999/xlink" x="0px" y="0px"
	 viewBox="0 0 20 20" style="enable-background:new 0 0 20 20;" xml:space="preserve">
<style type="text/css">
	.st0{fill:#CBCCE3;}
	.st1{fill:#F3F4FE;}
	.st2{fill:#9296AB;}
</style>
<g id="Assets">
	<g>
		<g>
			<path class="st0" d="M16,1c1.7,0,3,1.3,3,3v12c0,1.7-1.3,3-3,3H4c-1.7,0-3-1.3-3-3V4c0-1.7,1.3-3,3-3H16 M16,0H4C1.8,0,0,1.8,0,4
				v12c0,2.2,1.8,4,4,4h12c2.2,0,4-1.8,4-4V4C20,1.8,18.2,0,16,0L16,0z"/>
		</g>
		<path class="st1" d="M19.5,16c0,1.9-1.6,3.5-3.5,3.5H4c-1.9,0-3.5-1.6-3.5-3.5V4c0-1.9,1.6-3.5,3.5-3.5H16c1.9,0,3.5,1.6,3.5,3.5
			V16z"/>
	</g>
</g>
<g id="Labels">
</g>
<path class="st2" d="M13.9,6c-0.4-0.2-0.9-0.1-1.1,0.2l-3.9,6l-1.9-1.7c-0.3-0.3-0.8-0.3-1.1,0s-0.3,0.8,0,1.1L8.5,14l0,0l0.1,0.1
	l0.1,0l0.1,0.1l0.1,0l0.2,0l0.1,0l0.2-0.1l0,0l0.1-0.1l0.1-0.1l0,0l4.4-6.8C14.4,6.7,14.3,6.2,13.9,6z"/>
</svg>
