<?xml version="1.0" encoding="utf-8"?>
<!-- Generator: Adobe Illustrator 21.1.0, SVG Export Plug-In . SVG Version: 6.00 Build 0)  -->
<svg version="1.1" id="Ebene_1" xmlns="http://www.w3.org/2000/svg" xmlns:xlink="http://www.w3.org/1999/xlink" x="0px" y="0px"
	 viewBox="0 0 744.6 342" enable-background="new 0 0 744.6 342" xml:space="preserve">
<g>
	<path fill="#FFFFFF" d="M652.2,171c0-14.9,9.2-28.2,23.9-37.4V89h-14.8h-9.1v36.2c-14.5,11.5-23.6,27.8-23.6,45.8
		s9.1,34.3,23.6,45.8V253h9.1H676v-44.6C661.4,199.2,652.2,185.9,652.2,171z"/>
	<g>
		<path fill="#FFFFFF" d="M531.7,170.1c-9.6,0-15.9,7.4-15.9,17.5c0,10.3,6.7,17.5,15.9,17.5c9.6,0,15.9-7.2,15.9-17.5
			C547.6,177.4,541.3,170.1,531.7,170.1z"/>
		<path fill="#FFFFFF" d="M645.2,123.5V68h-308H91.2c-12.4,0-22.6,10.2-22.6,22.7v160.6c0,12.5,10.2,22.7,22.6,22.7h554v-55.5
			c-14.8-12-24.1-28.8-24.1-47.5S630.4,135.4,645.2,123.5z M188.8,165.5h-8.9v45.6h-12.7v-45.6h-8.9V154h8.9v-22.3h12.7V154h8.9
			V165.5z M216,211.1h-12.8V154H216V211.1z M209.7,146.9c-4.8,0-8.9-4.1-8.9-9.1c0-4.8,4.1-8.9,8.9-8.9c5,0,9.1,4.1,9.1,8.9
			C218.8,142.8,214.7,146.9,209.7,146.9z M261.7,212.2c-16.7,0-29.1-13.2-29.1-29.8c0-16.6,12.5-29.8,29-29.8c8.7,0,16,3.7,21.4,9.7
			c-2.8,2.8-5.7,5.4-8.5,8.1c-3.4-3.7-7.3-6.3-12.8-6.3c-9.9,0-16.6,7.7-16.6,18.3c0,10.9,6.9,18.3,16.6,18.3
			c5.8,0,10.4-2.9,13.4-7.3l9.2,7.3C278.8,208.2,271.3,212.2,261.7,212.2z M337.4,211.1L318.2,184l-6.4,7.4v19.7H299v-90.7h12.8
			v55.3l18.6-21.8h14L326,175.2l25.3,35.9H337.4z M413,185.6h-42.6c1.2,11.1,8.7,16.2,17.1,16.2c7.7,0,13.1-3.7,16.2-8.3l8.6,6.5
			c-5.7,7.5-12.2,12.3-25.3,12.3c-17.3,0-29.1-12.8-29.1-29.9c0-16.3,11.1-29.8,28.4-29.8c18.5,0,26.7,13.5,26.7,29.8V185.6z
			 M453.9,165.5H445v45.6h-12.7v-45.6h-8.9V154h8.9v-22.3H445V154h8.9V165.5z M469.4,210.9c-3,0-5.6-2.5-5.6-5.6s2.5-5.6,5.6-5.6
			c3,0,5.6,2.5,5.6,5.6S472.4,210.9,469.4,210.9z M496.7,209.9h-6.8v-44.5h6.8V209.9z M493.2,159.5c-3,0-5.6-2.5-5.6-5.6
			c0-3,2.5-5.6,5.6-5.6c3,0,5.6,2.5,5.6,5.6C498.8,157,496.3,159.5,493.2,159.5z M531.7,210.9c-12.5,0-22.6-10.4-22.6-23.3
			s10.1-23.3,22.6-23.3s22.6,10.4,22.6,23.3S544.2,210.9,531.7,210.9z"/>
		<path fill="#FFFFFF" d="M386.2,163.2c-7.4,0-13.7,4.7-15.4,13.9h29.6C399.4,168.5,394,163.2,386.2,163.2z"/>
	</g>
</g>
</svg>
