<?xml version="1.0" encoding="utf-8"?>
<!-- Generator: Adobe Illustrator 19.2.0, SVG Export Plug-In . SVG Version: 6.00 Build 0)  -->
<svg version="1.1" id="Ebene_1" xmlns="http://www.w3.org/2000/svg" xmlns:xlink="http://www.w3.org/1999/xlink" x="0px" y="0px"
	 viewBox="0 0 20 20" style="enable-background:new 0 0 20 20;" xml:space="preserve">
<style type="text/css">
	.st0{fill:#FFFFFF;}
	.st1{fill:#EDEDED;}
	.st2{fill:#BFBDBE;}
	.st3{fill:url(#SVGID_1_);}
	.st4{fill:url(#SVGID_2_);}
	.st5{fill:url(#SVGID_3_);}
</style>
<g id="Assets">
	<g>
		<path class="st0" d="M19,16.5c0,1.9-1.6,3.5-3.5,3.5h-12C1.6,20,0,18.4,0,16.5v-12C0,2.6,1.6,1,3.5,1h12C17.4,1,19,2.6,19,4.5
			V16.5z"/>
		<path class="st1" d="M15.1,0.4H5c-2.3,0-4.3,1.9-4.3,4.3v10.8c0,2.3,1.9,4.3,4.3,4.3h10.1c2.3,0,4.3-1.9,4.3-4.3V4.6
			C19.3,2.3,17.4,0.4,15.1,0.4z"/>
		<g>
			<path class="st2" d="M16,1c1.7,0,3,1.3,3,3v12c0,1.7-1.3,3-3,3H4c-1.7,0-3-1.3-3-3V4c0-1.7,1.3-3,3-3H16 M16,0H4C1.8,0,0,1.8,0,4
				v12c0,2.2,1.8,4,4,4h12c2.2,0,4-1.8,4-4V4C20,1.8,18.2,0,16,0L16,0z"/>
		</g>
	</g>
	
		<linearGradient id="SVGID_1_" gradientUnits="userSpaceOnUse" x1="17" y1="1012.05" x2="19" y2="1012.05" gradientTransform="matrix(1 0 0 1 0 -1002)">
		<stop  offset="0" style="stop-color:#E5E5E5;stop-opacity:0"/>
		<stop  offset="1" style="stop-color:#E5E5E5"/>
	</linearGradient>
	<path class="st3" d="M17,1.2v17.7c0,0,2-0.7,2-2.8V4C19,2,17,1.2,17,1.2z"/>
	
		<linearGradient id="SVGID_2_" gradientUnits="userSpaceOnUse" x1="-10596.5" y1="1012" x2="-10595.5" y2="1012" gradientTransform="matrix(-1 0 0 1 -10594.5 -1002)">
		<stop  offset="0" style="stop-color:#E5E5E5;stop-opacity:0"/>
		<stop  offset="1" style="stop-color:#E5E5E5"/>
	</linearGradient>
	<path class="st4" d="M2,2L2,2v16l0,0c-0.5,0-1-1.4-1-2V4C1,3.4,1.5,2,2,2z"/>
	
		<linearGradient id="SVGID_3_" gradientUnits="userSpaceOnUse" x1="-6217.8721" y1="-5215.6719" x2="-6215.8721" y2="-5215.6719" gradientTransform="matrix(0 -1 -1 0 -5205.6221 -6214.8721)">
		<stop  offset="0" style="stop-color:#E5E5E5;stop-opacity:0"/>
		<stop  offset="1" style="stop-color:#E5E5E5"/>
	</linearGradient>
	<path class="st5" d="M18.9,3H1.2C1.2,3,2,1,4,1h12C17.9,1,18.9,3,18.9,3z"/>
</g>
<g id="Labels">
</g>
</svg>
