<?xml version="1.0" encoding="utf-8"?>
<!-- Generator: Adobe Illustrator 21.1.0, SVG Export Plug-In . SVG Version: 6.00 Build 0)  -->
<svg version="1.1" id="Ebene_1" xmlns="http://www.w3.org/2000/svg" xmlns:xlink="http://www.w3.org/1999/xlink" x="0px" y="0px"
	 viewBox="0 0 744.6 342" enable-background="new 0 0 744.6 342" xml:space="preserve">
<g>
	<path fill="#402B85" d="M672,131.3V86h-50v170h50v-45.3c-15.5-9.6-25.3-23.8-25.3-39.7S656.5,140.8,672,131.3z"/>
	<path fill="#2C2561" d="M655.7,128.3V95H595v152h60.7v-33.3c-13.9-10.7-22.5-25.9-22.5-42.7S641.8,139.1,655.7,128.3z"/>
	<linearGradient id="SVGID_1_" gradientUnits="userSpaceOnUse" x1="83.3233" y1="171" x2="646.6567" y2="171">
		<stop  offset="0" style="stop-color:#3A3088"/>
		<stop  offset="0.1598" style="stop-color:#423F91"/>
		<stop  offset="1" style="stop-color:#48398D"/>
	</linearGradient>
	<path fill="url(#SVGID_1_)" d="M646.7,123.5V68H345.8H105.4c-12.2,0-22.1,10.2-22.1,22.7v160.6c0,12.5,9.9,22.7,22.1,22.7h541.2
		v-55.5c-14.5-12-23.6-28.8-23.6-47.5S632.2,135.4,646.7,123.5z"/>
	<linearGradient id="SVGID_2_" gradientUnits="userSpaceOnUse" x1="88.0409" y1="274" x2="88.0409" y2="68">
		<stop  offset="0" style="stop-color:#624493"/>
		<stop  offset="1" style="stop-color:#5A4997"/>
	</linearGradient>
	<path fill="url(#SVGID_2_)" d="M84.3,251.3V90.7c0-12.5,9.9-22.7,22.1-22.7H92.3c-12.5,0-22.7,10.2-22.7,22.7v160.6
		c0,12.5,10.2,22.7,22.7,22.7h14.1C94.3,274,84.3,263.8,84.3,251.3z"/>
	<g>
		<g>
			<path fill="#FFFFFF" d="M175.6,154v-22.3h12.7V154h8.9v11.5h-8.9v45.6h-12.7v-45.6h-8.9V154H175.6z"/>
			<path fill="#FFFFFF" d="M218.2,128.8c5,0,9.1,4.1,9.1,8.9c0,5-4.1,9.1-9.1,9.1c-4.8,0-8.9-4.1-8.9-9.1
				C209.2,133,213.3,128.8,218.2,128.8z M211.6,211.1V154h12.8v57.1H211.6z"/>
			<path fill="#FFFFFF" d="M283,170.4c-3.4-3.7-7.3-6.3-12.8-6.3c-9.9,0-16.6,7.7-16.6,18.3c0,10.9,6.9,18.3,16.6,18.3
				c5.8,0,10.4-2.9,13.4-7.3l9.2,7.3c-5.6,7.5-13.1,11.5-22.6,11.5c-16.7,0-29.1-13.2-29.1-29.8c0-16.6,12.5-29.8,29-29.8
				c8.7,0,16,3.7,21.4,9.7C288.7,165.1,285.8,167.8,283,170.4z"/>
			<path fill="#FFFFFF" d="M345.9,211.1L326.7,184l-6.4,7.4v19.7h-12.8v-90.7h12.8v55.3l18.6-21.8h14l-18.5,21.3l25.3,35.9H345.9z"
				/>
			<path fill="#FFFFFF" d="M366.3,182.4c0-16.3,11.1-29.8,28.4-29.8c18.5,0,26.7,13.5,26.7,29.8v3.1h-42.6
				c1.2,11.1,8.7,16.2,17.1,16.2c7.7,0,13.1-3.7,16.2-8.3l8.6,6.5c-5.7,7.5-12.2,12.3-25.3,12.3
				C378.2,212.3,366.3,199.5,366.3,182.4z M379.3,177.1h29.6c-1.1-8.6-6.4-13.9-14.3-13.9C387.3,163.2,381,167.9,379.3,177.1z"/>
			<path fill="#FFFFFF" d="M440.7,154v-22.3h12.7V154h8.9v11.5h-8.9v45.6h-12.7v-45.6h-8.9V154H440.7z"/>
		</g>
		<g>
			<path fill="#FFFFFF" d="M477.9,199.7c3,0,5.6,2.5,5.6,5.6s-2.5,5.6-5.6,5.6c-3,0-5.6-2.5-5.6-5.6S474.8,199.7,477.9,199.7z"/>
			<path fill="#FFFFFF" d="M501.7,148.4c3,0,5.6,2.5,5.6,5.6c0,3-2.5,5.6-5.6,5.6c-3,0-5.6-2.5-5.6-5.6
				C496.1,150.9,498.7,148.4,501.7,148.4z M498.3,209.9v-44.5h6.8v44.5H498.3z"/>
			<path fill="#FFFFFF" d="M517.6,187.5c0-12.9,10.1-23.3,22.6-23.3s22.6,10.4,22.6,23.3s-10.1,23.3-22.6,23.3
				S517.6,200.4,517.6,187.5z M556.1,187.5c0-10.2-6.3-17.5-15.9-17.5c-9.6,0-15.9,7.4-15.9,17.5c0,10.3,6.7,17.5,15.9,17.5
				C549.7,205,556.1,197.8,556.1,187.5z"/>
		</g>
	</g>
</g>
</svg>
