<?xml version="1.0" encoding="utf-8"?>
<!-- Generator: Adobe Illustrator 21.1.0, SVG Export Plug-In . SVG Version: 6.00 Build 0)  -->
<svg version="1.1" id="Ebene_1" xmlns="http://www.w3.org/2000/svg" xmlns:xlink="http://www.w3.org/1999/xlink" x="0px" y="0px"
	 viewBox="0 0 789.3 468.1" enable-background="new 0 0 789.3 468.1" xml:space="preserve">
<g>
	<g>
		<path fill="#FFFFFF" d="M167,373.5h-2.9v-11.1c0-4.4-2.3-6.5-5.5-6.5c-3.8,0-6.3,2.9-6.5,6.3v11.3h-2.9v-19.8h2.9v1.3
			c0,0.7,0,1.3-0.1,1.9c1.5-2.1,3.9-3.6,6.8-3.6c5,0,8.2,3,8.2,9.1V373.5z"/>
		<path fill="#FFFFFF" d="M191.5,364.4h-16.1c0.3,4.5,3.6,6.8,7.2,6.8c3.2,0,5.4-1.6,6.6-3.4l2.1,1.8c-1.8,2.4-4.2,4.3-8.8,4.3
			c-6.2,0-10.1-4.6-10.1-10.4s3.9-10.4,9.8-10.4c6.1,0,9.2,4.6,9.2,9.7V364.4z M175.4,362.1h13c-0.4-3.8-2.5-6.3-6.2-6.3
			C178.8,355.8,176,358,175.4,362.1z"/>
		<path fill="#FFFFFF" d="M195,373.5l7.9-10.1l-7.5-9.6h3.6l5.7,7.3l5.7-7.3h3.6l-7.5,9.6l7.9,10.1h-3.6l-6.1-7.8l-6.1,7.8H195z"/>
		<path fill="#FFFFFF" d="M221.1,373.5v-17.2h-3.5v-2.6h3.5v-8.4h3v8.4h3.5v2.6h-3.5v17.2H221.1z"/>
		<path fill="#FFFFFF" d="M288.5,364.4h-16.1c0.3,4.5,3.6,6.8,7.2,6.8c3.2,0,5.4-1.6,6.6-3.4l2.1,1.8c-1.8,2.4-4.2,4.3-8.8,4.3
			c-6.2,0-10.1-4.6-10.1-10.4s3.9-10.4,9.8-10.4c6.1,0,9.2,4.6,9.2,9.7V364.4z M272.5,362.1h13c-0.4-3.8-2.5-6.3-6.2-6.3
			C275.9,355.8,273,358,272.5,362.1z"/>
		<path fill="#FFFFFF" d="M311.8,373.5h-2.9v-11.1c0-4.4-2.3-6.5-5.5-6.5c-3.8,0-6.3,2.9-6.5,6.3v11.3H294v-19.8h2.9v1.3
			c0,0.7,0,1.3-0.1,1.9c1.5-2.1,3.9-3.6,6.8-3.6c5,0,8.2,3,8.2,9.1V373.5z"/>
		<path fill="#FFFFFF" d="M336.3,364.4h-16.1c0.3,4.5,3.6,6.8,7.2,6.8c3.2,0,5.4-1.6,6.6-3.4l2.1,1.8c-1.8,2.4-4.2,4.3-8.8,4.3
			c-6.2,0-10.1-4.6-10.1-10.4s3.9-10.4,9.8-10.4c6.1,0,9.2,4.6,9.2,9.7V364.4z M320.2,362.1h13c-0.4-3.8-2.5-6.3-6.2-6.3
			C323.6,355.8,320.7,358,320.2,362.1z"/>
		<path fill="#FFFFFF" d="M344.6,373.5h-2.9v-19.8h2.9v1.3c0,0.3,0,0.6,0,0.9c1.2-1.6,2.9-2.7,5.4-2.7v2.7c-3.2,0.2-5.2,2.8-5.3,6.2
			V373.5z"/>
		<path fill="#FFFFFF" d="M371.9,373.5c-2.3,0-3.7-1.4-4-3.4c-1.4,1.9-3.8,3.9-8,3.9c-9.2,0-9.3-11.4,0.1-12.4
			c3.6-0.3,6.8,0.3,7.9,0.7v-1.3c0-3.1-2.2-5.1-5.5-5.1c-1.9,0-4.2,0.9-5.4,2.7l-2.3-1.8c0,0,2.4-3.7,7.7-3.7c5.2,0,8.3,3.1,8.3,7.9
			v8.6c0,0.7,0.5,1.2,1.2,1.2h0.4v2.8H371.9z M368,364.5c-1-0.2-4.4-0.9-7.6-0.5c-5.4,0.6-6.2,7.3,0,7.3
			C365.7,371.3,367.8,367.2,368,364.5z"/>
		<path fill="#FFFFFF" d="M379.3,373.5v-17.2h-3.5v-2.6h3.5v-8.4h3v8.4h3.5v2.6h-3.5v17.2H379.3z"/>
		<path fill="#FFFFFF" d="M392.5,346.2c1.3,0,2.5,1.1,2.5,2.5c0,1.3-1.1,2.5-2.5,2.5s-2.5-1.1-2.5-2.5
			C390,347.3,391.1,346.2,392.5,346.2z M391,373.5v-19.8h3v19.8H391z"/>
		<path fill="#FFFFFF" d="M399.6,363.5c0-5.7,4.5-10.4,10-10.4s10,4.6,10,10.4s-4.5,10.4-10,10.4S399.6,369.3,399.6,363.5z
			 M416.7,363.5c0-4.5-2.8-7.8-7.1-7.8s-7.1,3.3-7.1,7.8c0,4.6,3,7.8,7.1,7.8C413.9,371.3,416.7,368.1,416.7,363.5z"/>
		<path fill="#FFFFFF" d="M443.1,373.5h-2.9v-11.1c0-4.4-2.3-6.5-5.5-6.5c-3.8,0-6.3,2.9-6.5,6.3v11.3h-2.9v-19.8h2.9v1.3
			c0,0.7,0,1.3-0.1,1.9c1.5-2.1,3.9-3.6,6.8-3.6c5,0,8.2,3,8.2,9.1V373.5z"/>
		<path fill="#FFFFFF" d="M465.6,373.5v-17.2h-3.5v-2.6h3.5v-8.4h3v8.4h3.5v2.6h-3.5v17.2H465.6z"/>
		<path fill="#FFFFFF" d="M478.8,346.2c1.3,0,2.5,1.1,2.5,2.5c0,1.3-1.1,2.5-2.5,2.5s-2.5-1.1-2.5-2.5
			C476.4,347.3,477.5,346.2,478.8,346.2z M477.3,373.5v-19.8h3v19.8H477.3z"/>
		<path fill="#FFFFFF" d="M504.2,370.1c-1.8,2.4-4.6,3.8-7.7,3.8c-5.5,0-10-4.6-10-10.4s4.5-10.4,10-10.4c2.9,0,5.5,1.3,7.3,3.3
			l-1.9,1.9c-1.3-1.5-3.1-2.6-5.4-2.6c-4.2,0-7.1,3.3-7.1,7.8c0,4.6,3,7.8,7.1,7.8c2.5,0,4.5-1.1,5.7-2.9L504.2,370.1z"/>
		<path fill="#FFFFFF" d="M523.4,373.5l-7.9-10.6l-2.8,3.2v7.4h-3V341h3V362l7.5-8.4h3.3l-6,7l9.2,12.9H523.4z"/>
		<path fill="#FFFFFF" d="M548.6,364.4h-16.1c0.3,4.5,3.6,6.8,7.2,6.8c3.2,0,5.4-1.6,6.6-3.4l2.1,1.8c-1.8,2.4-4.2,4.3-8.8,4.3
			c-6.2,0-10.1-4.6-10.1-10.4s3.9-10.4,9.8-10.4c6.1,0,9.2,4.6,9.2,9.7V364.4z M532.6,362.1h13c-0.4-3.8-2.5-6.3-6.2-6.3
			C535.9,355.8,533.1,358,532.6,362.1z"/>
		<path fill="#FFFFFF" d="M555.8,373.5v-17.2h-3.5v-2.6h3.5v-8.4h3v8.4h3.5v2.6h-3.5v17.2H555.8z"/>
		<path fill="#FFFFFF" d="M569,346.2c1.3,0,2.5,1.1,2.5,2.5c0,1.3-1.1,2.5-2.5,2.5s-2.5-1.1-2.5-2.5
			C566.5,347.3,567.7,346.2,569,346.2z M567.5,373.5v-19.8h3v19.8H567.5z"/>
		<path fill="#FFFFFF" d="M595.2,373.5h-2.9v-11.1c0-4.4-2.3-6.5-5.5-6.5c-3.8,0-6.3,2.9-6.5,6.3v11.3h-2.9v-19.8h2.9v1.3
			c0,0.7,0,1.3-0.1,1.9c1.5-2.1,3.9-3.6,6.8-3.6c5,0,8.2,3,8.2,9.1V373.5z"/>
	</g>
	<g>
		<path fill="#FFFFFF" d="M246.7,376.2l2.3-1.6c1.5,2.5,3.6,3.9,6.8,3.9c3.9,0,6.1-2,6.1-6.7v-4.1c-1.2,2.3-3.6,4.1-6.8,4.1
			c-4.9,0-8.7-4-8.7-9.4c0-5.3,3.8-9.3,8.7-9.3c3.4,0,5.7,1.8,7,4.2l-0.1-3.9h3V372c0,6.3-3.7,9.1-9.1,9.1
			C251.4,381.1,248.4,379.1,246.7,376.2z M261.9,362.5c0-3.9-2.6-6.6-6.4-6.6c-3.8,0-6.2,2.8-6.2,6.6c0,3.9,2.4,6.7,6.2,6.7
			C259.4,369.2,261.9,366.4,261.9,362.5z"/>
	</g>
	<g>
		<path fill="#FFFFFF" d="M601.7,376.2l2.3-1.6c1.5,2.5,3.6,3.9,6.8,3.9c3.9,0,6.1-2,6.1-6.7v-4.1c-1.2,2.3-3.6,4.1-6.8,4.1
			c-4.9,0-8.7-4-8.7-9.4c0-5.3,3.8-9.3,8.7-9.3c3.4,0,5.7,1.8,7,4.2l-0.1-3.9h3V372c0,6.3-3.7,9.1-9.1,9.1
			C606.4,381.1,603.4,379.1,601.7,376.2z M616.9,362.5c0-3.9-2.6-6.6-6.4-6.6c-3.8,0-6.2,2.8-6.2,6.6c0,3.9,2.4,6.7,6.2,6.7
			C614.4,369.2,616.9,366.4,616.9,362.5z"/>
	</g>
</g>
<g>
	<path fill="#FFFFFF" d="M677.6,198.4c0-14.9,9.2-28.2,23.9-37.4v-44.6h-14.8h-9.1v36.2c-14.5,11.5-23.6,27.8-23.6,45.8
		s9.1,34.3,23.6,45.8v36.2h9.1h14.8v-44.6C686.8,226.6,677.6,213.2,677.6,198.4z"/>
	<g>
		<path fill="#FFFFFF" d="M557.2,197.4c-9.6,0-15.9,7.4-15.9,17.5c0,10.3,6.7,17.5,15.9,17.5c9.6,0,15.9-7.2,15.9-17.5
			C573.1,204.7,566.7,197.4,557.2,197.4z"/>
		<path fill="#FFFFFF" d="M670.7,150.8V95.4h-308H116.6c-12.4,0-22.6,10.2-22.6,22.7v160.6c0,12.5,10.2,22.7,22.6,22.7h554v-55.5
			c-14.8-12-24.1-28.8-24.1-47.5S655.8,162.8,670.7,150.8z M214.3,192.9h-8.9v45.6h-12.7v-45.6h-8.9v-11.5h8.9v-22.3h12.7v22.3h8.9
			V192.9z M241.5,238.5h-12.8v-57.1h12.8V238.5z M235.2,174.2c-4.8,0-8.9-4.1-8.9-9.1c0-4.8,4.1-8.9,8.9-8.9c5,0,9.1,4.1,9.1,8.9
			C244.3,170.1,240.1,174.2,235.2,174.2z M287.2,239.5c-16.7,0-29.1-13.2-29.1-29.8c0-16.6,12.5-29.8,29-29.8c8.7,0,16,3.7,21.4,9.7
			c-2.8,2.8-5.7,5.4-8.5,8.1c-3.4-3.7-7.3-6.3-12.8-6.3c-9.9,0-16.6,7.7-16.6,18.3c0,10.9,6.9,18.3,16.6,18.3
			c5.8,0,10.4-2.9,13.4-7.3l9.2,7.3C304.2,235.6,296.7,239.5,287.2,239.5z M362.9,238.5l-19.2-27.1l-6.4,7.4v19.7h-12.8v-90.7h12.8
			V203l18.6-21.8h14l-18.5,21.3l25.3,35.9H362.9z M438.5,212.9h-42.6c1.2,11.1,8.7,16.2,17.1,16.2c7.7,0,13.1-3.7,16.2-8.3l8.6,6.5
			c-5.7,7.5-12.2,12.3-25.3,12.3c-17.3,0-29.1-12.8-29.1-29.9c0-16.3,11.1-29.8,28.4-29.8c18.5,0,26.7,13.5,26.7,29.8V212.9z
			 M479.4,192.9h-8.9v45.6h-12.7v-45.6h-8.9v-11.5h8.9v-22.3h12.7v22.3h8.9V192.9z M494.9,238.2c-3,0-5.6-2.5-5.6-5.6
			s2.5-5.6,5.6-5.6c3,0,5.6,2.5,5.6,5.6S497.9,238.2,494.9,238.2z M522.1,237.3h-6.8v-44.5h6.8V237.3z M518.7,186.9
			c-3,0-5.6-2.5-5.6-5.6c0-3,2.5-5.6,5.6-5.6c3,0,5.6,2.5,5.6,5.6C524.3,184.3,521.7,186.9,518.7,186.9z M557.2,238.2
			c-12.5,0-22.6-10.4-22.6-23.3s10.1-23.3,22.6-23.3s22.6,10.4,22.6,23.3S569.7,238.2,557.2,238.2z"/>
		<path fill="#FFFFFF" d="M411.6,190.6c-7.4,0-13.7,4.7-15.4,13.9h29.6C424.8,195.9,419.5,190.6,411.6,190.6z"/>
	</g>
</g>
</svg>
