<?xml version="1.0" encoding="utf-8"?>
<!-- Generator: Adobe Illustrator 22.0.1, SVG Export Plug-In . SVG Version: 6.00 Build 0)  -->
<svg version="1.1" id="Ebene_1" xmlns="http://www.w3.org/2000/svg" xmlns:xlink="http://www.w3.org/1999/xlink" x="0px" y="0px"
	 viewBox="0 0 400 125" style="enable-background:new 0 0 400 125;" xml:space="preserve">
<style type="text/css">
	.st0{fill:#FFFFFF;}
</style>
<g>
	<g>
		<path class="st0" d="M28.1,51.3V31h11.5v20.2h8.1v10.4h-8.1v41.5H28.1V61.7h-8.1V51.3H28.1z"/>
		<path class="st0" d="M66.8,28.4c4.5,0,8.2,3.7,8.2,8.1c0,4.5-3.7,8.2-8.2,8.2c-4.4,0-8.1-3.7-8.1-8.2
			C58.6,32.1,62.4,28.4,66.8,28.4z M60.8,103.2V51.3h11.7v51.9H60.8z"/>
		<path class="st0" d="M125.7,66.2c-3.1-3.4-6.6-5.7-11.7-5.7c-9,0-15.1,7-15.1,16.6c0,9.9,6.3,16.6,15.1,16.6
			c5.3,0,9.5-2.6,12.2-6.6l8.4,6.6c-5.1,6.8-11.9,10.4-20.6,10.4c-15.2,0-26.5-12-26.5-27.1c0-15.1,11.3-27.1,26.4-27.1
			c7.9,0,14.5,3.4,19.5,8.8C130.9,61.4,128.3,63.8,125.7,66.2z"/>
		<path class="st0" d="M182.9,103.2l-17.5-24.6l-5.8,6.7v17.9h-11.7V20.7h11.7V71l16.9-19.8h12.8l-16.8,19.4l23,32.7H182.9z"/>
		<path class="st0" d="M201.5,77.1c0-14.8,10.1-27.1,25.8-27.1c16.8,0,24.3,12.3,24.3,27.1V80h-38.7c1.1,10.1,7.9,14.7,15.5,14.7
			c7,0,11.9-3.4,14.7-7.6l7.8,5.9c-5.2,6.8-11.1,11.2-23,11.2C212.3,104.3,201.5,92.6,201.5,77.1z M213.3,72.3h26.9
			c-1-7.8-5.8-12.6-13-12.6C220.5,59.6,214.8,63.9,213.3,72.3z"/>
		<path class="st0" d="M269.1,51.3V31h11.5v20.2h8.1v10.4h-8.1v41.5h-11.5V61.7H261V51.3H269.1z"/>
	</g>
	<g>
		<path class="st0" d="M302.9,92.9c2.8,0,5.1,2.3,5.1,5.1c0,2.8-2.3,5.1-5.1,5.1c-2.8,0-5.1-2.3-5.1-5.1
			C297.9,95.2,300.2,92.9,302.9,92.9z"/>
		<path class="st0" d="M324.6,46.2c2.8,0,5.1,2.3,5.1,5.1c0,2.8-2.3,5.1-5.1,5.1c-2.8,0-5.1-2.3-5.1-5.1
			C319.5,48.5,321.8,46.2,324.6,46.2z M321.5,102.1V61.6h6.2v40.5H321.5z"/>
		<path class="st0" d="M339.1,81.8c0-11.7,9.1-21.2,20.5-21.2c11.4,0,20.5,9.5,20.5,21.2s-9.1,21.2-20.5,21.2
			C348.2,103,339.1,93.5,339.1,81.8z M374,81.8c0-9.2-5.8-15.9-14.5-15.9c-8.7,0-14.5,6.7-14.5,15.9c0,9.3,6.1,15.9,14.5,15.9
			C368.3,97.7,374,91.1,374,81.8z"/>
	</g>
</g>
</svg>
